<svg width="128" height="32" viewBox="0 0 128 32" fill="none" xmlns="http://www.w3.org/2000/svg">
  <path d="M6 18H18L22 10L28 24L34 14H48" stroke="#10201B" stroke-width="4" stroke-linecap="round" stroke-linejoin="round"/>
  <path d="M59.2 9H67.88V11.896H64.8V23H62.272V11.896H59.2V9ZM72.2917 23.256C67.8757 23.256 64.5877 20.32 64.5877 16C64.5877 11.712 67.9397 8.744 72.1637 8.744C76.5797 8.744 79.8037 11.84 79.8037 16.256V17.544H68.3877C68.8717 19.64 70.4517 20.864 72.5157 20.864C73.9317 20.864 75.0597 20.316 75.8977 19.252L78.9257 21.22C77.4117 22.67 75.3477 23.256 72.2917 23.256ZM68.4197 14.84H75.8017C75.3497 12.968 73.9317 11.808 72.1317 11.808C70.2677 11.808 68.8837 12.936 68.4197 14.84ZM80.9289 28.584V9.16H84.8889V11C85.9509 9.584 87.6229 8.776 89.7189 8.776C93.8149 8.776 96.9269 11.776 96.9269 16.064C96.9269 20.288 93.8149 23.256 89.7189 23.256C87.6229 23.256 86.0349 22.484 84.8889 21.196V28.584H80.9289ZM89.0149 20.288C91.4309 20.288 93.0189 18.604 93.0189 16.064C93.0189 13.428 91.4309 11.628 89.0149 11.628C86.5989 11.628 84.8889 13.428 84.8889 16.064C84.8889 18.604 86.5989 20.288 89.0149 20.288ZM98.7475 23V9H102.708V23H98.7475ZM110.82 23.256C106.404 23.256 103.116 20.32 103.116 16C103.116 11.712 106.468 8.744 110.692 8.744C115.108 8.744 118.332 11.84 118.332 16.256V17.544H106.916C107.4 19.64 108.98 20.864 111.044 20.864C112.46 20.864 113.588 20.316 114.426 19.252L117.454 21.22C115.94 22.67 113.876 23.256 110.82 23.256Z" fill="#10201B"/>
</svg>
