<svg width="1280" height="320" viewBox="0 0 1280 320" fill="none" xmlns="http://www.w3.org/2000/svg">
  <rect width="1280" height="320" rx="48" fill="#F8FCFA"/>
  <g transform="translate(48 48)">
    <rect width="224" height="224" rx="56" fill="url(#panel)"/>
    <rect x="8" y="8" width="208" height="208" rx="48" stroke="#D7F3E6" stroke-width="2"/>
    <path d="M40 132H74L94 92L122 154L146 106H184" stroke="#10C58A" stroke-width="14" stroke-linecap="round" stroke-linejoin="round"/>
  </g>
  <g transform="translate(320 84)">
    <path d="M0 16.4H84.6V44.6H54.6V152H30V44.6H0V16.4ZM130.303 154.6C102.903 154.6 82.5031 136.4 82.5031 109.6C82.5031 83 103.303 64.6 129.503 64.6C156.903 64.6 176.903 83.8 176.903 111.2V119.2H106.103C109.103 132.2 118.903 139.8 131.703 139.8C140.503 139.8 147.503 136.4 152.703 129.8L171.503 142C162.103 151 149.303 154.6 130.303 154.6ZM106.303 102.4H152.103C149.303 90.8 140.503 83.6 129.303 83.6C117.703 83.6 109.103 90.6 106.303 102.4ZM183.389 152V16.4H207.989V77.4C214.389 69.6 224.389 64.6 237.589 64.6C263.589 64.6 282.989 83.2 282.989 109.8C282.989 136.2 263.589 154.6 237.589 154.6C224.189 154.6 214.189 149.6 207.789 141.4V152H183.389ZM232.989 135.8C248.189 135.8 258.189 125.2 258.189 109.8C258.189 94.2 248.189 83.4 232.989 83.4C217.789 83.4 207.789 94.2 207.789 109.8C207.789 125.2 217.789 135.8 232.989 135.8ZM339.515 154.6C312.115 154.6 291.715 136.4 291.715 109.6C291.715 83 312.515 64.6 338.715 64.6C366.115 64.6 386.115 83.8 386.115 111.2V119.2H315.315C318.315 132.2 328.115 139.8 340.915 139.8C349.715 139.8 356.715 136.4 361.915 129.8L380.715 142C371.315 151 358.515 154.6 339.515 154.6ZM315.515 102.4H361.315C358.515 90.8 349.715 83.6 338.515 83.6C326.915 83.6 318.315 90.6 315.515 102.4ZM399.401 152V67.2H424.001V80.8C429.601 71.2 439.601 64.6 453.201 64.6C474.601 64.6 488.201 78.6 488.201 101.6V152H463.601V108.2C463.601 93.8 455.801 85.4 443.201 85.4C430.401 85.4 424.001 93.8 424.001 107.2V152H399.401ZM546.74 154.6C519.34 154.6 498.94 136.4 498.94 109.6C498.94 83 519.74 64.6 545.94 64.6C573.34 64.6 593.34 83.8 593.34 111.2V119.2H522.54C525.54 132.2 535.34 139.8 548.14 139.8C556.94 139.8 563.94 136.4 569.14 129.8L587.94 142C578.54 151 565.74 154.6 546.74 154.6ZM522.74 102.4H568.54C565.74 90.8 556.94 83.6 545.74 83.6C534.14 83.6 525.54 90.6 522.74 102.4ZM650.626 154.6C626.626 154.6 608.426 143.8 601.426 125.8L621.826 116.6C626.226 129 636.026 136.2 649.626 136.2C661.826 136.2 669.026 130.8 669.026 122.6C669.026 115.2 663.626 110.8 649.426 108L640.626 106.2C617.226 101.4 605.026 90 605.026 72.4C605.026 49.4 623.826 14 654.626 14C680.626 14 695.426 24 703.226 42L683.426 51.8C679.026 40.6 670.226 34 656.626 34C644.826 34 637.426 39.8 637.426 47.6C637.426 54.8 642.626 58.4 655.426 61.2L664.426 63C688.826 68.2 701.626 80 701.626 97.6C701.626 119.8 684.626 154.6 650.626 154.6ZM724.869 185.2V67.2H749.469V78.4C756.069 69.6 766.469 64.6 779.669 64.6C805.469 64.6 825.069 83.4 825.069 110C825.069 136.2 805.469 154.6 779.669 154.6C766.469 154.6 756.469 149.8 749.469 141.8V185.2H724.869ZM775.069 135.8C790.269 135.8 800.269 125.2 800.269 110C800.269 94.2 790.269 83.4 775.069 83.4C759.869 83.4 749.469 94.2 749.469 110C749.469 125.2 759.869 135.8 775.069 135.8ZM838.404 152V16.4H863.004V152H838.404ZM920.93 154.6C893.53 154.6 873.13 136.4 873.13 109.6C873.13 83 893.93 64.6 920.13 64.6C947.53 64.6 967.53 83.8 967.53 111.2V119.2H896.73C899.73 132.2 909.53 139.8 922.33 139.8C931.13 139.8 938.13 136.4 943.33 129.8L962.13 142C952.73 151 939.93 154.6 920.93 154.6ZM896.93 102.4H942.73C939.93 90.8 931.13 83.6 919.93 83.6C908.33 83.6 899.73 90.6 896.93 102.4ZM1023.42 154.6C999.019 154.6 978.619 141 973.819 119.4L996.619 113.4C1000.22 128.2 1010.62 137.4 1023.42 137.4C1035.62 137.4 1043.42 132.2 1043.42 124.6C1043.42 117.6 1038.62 113.6 1025.02 111.2L1015.82 109.6C991.619 105.4 980.619 96 980.619 80.4C980.619 61 996.819 47 1021.42 47C1045.42 47 1061.02 58.4 1065.62 77.6L1043.42 83.8C1040.82 71.2 1033.82 64.2 1021.42 64.2C1010.62 64.2 1004.42 68.8 1004.42 75.4C1004.42 81.6 1008.62 85 1020.22 87.2L1029.42 89C1055.22 93.8 1067.22 103.8 1067.22 119C1067.22 139 1050.42 154.6 1023.42 154.6Z" fill="#10201B"/>
  </g>
  <defs>
    <linearGradient id="panel" x1="22" y1="18" x2="208" y2="208" gradientUnits="userSpaceOnUse">
      <stop stop-color="#FFFFFF"/>
      <stop offset="1" stop-color="#E6F7EE"/>
    </linearGradient>
  </defs>
</svg>
