<svg width="960" height="220" viewBox="0 0 960 220" fill="none" xmlns="http://www.w3.org/2000/svg">
  <rect width="960" height="220" rx="40" fill="white"/>
  <rect x="28" y="28" width="164" height="164" rx="42" fill="#10201B"/>
  <path d="M54 119H80L95 88L116 145L135 98H166" stroke="white" stroke-width="12" stroke-linecap="round" stroke-linejoin="round"/>
  <path d="M230 58H307.28V83.76H279.88V182H257.4V83.76H230V58ZM349.024 184.4C324.016 184.4 305.392 167.792 305.392 143.32C305.392 119.04 324.376 102.24 348.304 102.24C373.312 102.24 391.576 119.784 391.576 144.768V152.088H326.888C329.632 163.952 338.576 170.88 350.264 170.88C358.288 170.88 364.68 167.776 369.432 161.736L386.608 172.896C378.024 181.12 366.336 184.4 349.024 184.4ZM327.072 136.728H368.888C366.328 126.128 358.288 119.552 348.128 119.552C337.6 119.552 329.784 125.944 327.072 136.728ZM403.487 228.328V104.064H425.967V115.816C431.999 107.224 441.663 102.608 454.647 102.608C480.039 102.608 499.319 121.048 499.319 147.36C499.319 173.304 480.039 191.376 454.647 191.376C441.663 191.376 432.367 187.128 425.967 179.072V228.328H403.487ZM449.015 173.12C463.879 173.12 473.655 162.76 473.655 147.36C473.655 131.408 463.879 120.496 449.015 120.496C434.151 120.496 423.607 131.408 423.607 147.36C423.607 162.76 434.151 173.12 449.015 173.12Z" fill="#10201B"/>
</svg>
